HIERARCHY
ROOT root
{
	OFFSET 0.000000 0.000000 0.000000
	CHANNELS 6 Xposition Yposition Zposition Zrotation Yrotation Xrotation
	JOINT lhip
	{
		OFFSET 0.058581 -0.082280 -0.017664
		CHANNELS 3 Zrotation Yrotation Xrotation
		JOINT lknee
		{
			OFFSET 0.043451 -0.386469 0.008037
			CHANNELS 3 Zrotation Yrotation Xrotation
			JOINT lankle
			{
				OFFSET -0.014790 -0.426874 -0.037428
				CHANNELS 3 Zrotation Yrotation Xrotation
				JOINT ltoe
				{
					OFFSET 0.041054 -0.060286 0.122042
					CHANNELS 3 Zrotation Yrotation Xrotation
					End Site
					{
						OFFSET 0.000000 0.000000 0.000000
					}
				}
			}
		}
	}
	JOINT rhip
	{
		OFFSET -0.060310 -0.090513 -0.013543
		CHANNELS 3 Zrotation Yrotation Xrotation
		JOINT rknee
		{
			OFFSET -0.043257 -0.383688 -0.004843
			CHANNELS 3 Zrotation Yrotation Xrotation
			JOINT rankle
			{
				OFFSET 0.019056 -0.420046 -0.034562
				CHANNELS 3 Zrotation Yrotation Xrotation
				JOINT rtoe
				{
					OFFSET -0.034840 -0.062106 0.130323
					CHANNELS 3 Zrotation Yrotation Xrotation
					End Site
					{
						OFFSET 0.000000 0.000000 0.000000
					}
				}
			}
		}
	}
	JOINT lowerback
	{
		OFFSET 0.004439 0.124404 -0.038385
		CHANNELS 3 Zrotation Yrotation Xrotation
		JOINT upperback
		{
			OFFSET 0.004488 0.137956 0.026820
			CHANNELS 3 Zrotation Yrotation Xrotation
			JOINT chest
			{
				OFFSET -0.002265 0.056032 0.002855
				CHANNELS 3 Zrotation Yrotation Xrotation
				JOINT lowerneck
				{
					OFFSET -0.013390 0.211636 -0.033468
					CHANNELS 3 Zrotation Yrotation Xrotation
					JOINT upperneck
					{
						OFFSET 0.010113 0.088937 0.050410
						CHANNELS 3 Zrotation Yrotation Xrotation
						End Site
						{
							OFFSET 0.000000 0.000000 0.000000
						}
					}
				}
				JOINT lclavicle
				{
					OFFSET 0.071702 0.114000 -0.018898
					CHANNELS 3 Zrotation Yrotation Xrotation
					JOINT lshoulder
					{
						OFFSET 0.122921 0.045205 -0.019046
						CHANNELS 3 Zrotation Yrotation Xrotation
						JOINT lelbow
						{
							OFFSET 0.255332 -0.015649 -0.022946
							CHANNELS 3 Zrotation Yrotation Xrotation
							JOINT lwrist
							{
								OFFSET 0.265709 0.012698 -0.007375
								CHANNELS 3 Zrotation Yrotation Xrotation
								End Site
								{
									OFFSET 0.000000 0.000000 0.000000
								}
							}
						}
					}
				}
				JOINT rclavicle
				{
					OFFSET -0.082954 0.112472 -0.023707
					CHANNELS 3 Zrotation Yrotation Xrotation
					JOINT rshoulder
					{
						OFFSET -0.113228 0.046853 -0.008472
						CHANNELS 3 Zrotation Yrotation Xrotation
						JOINT relbow
						{
							OFFSET -0.260127 -0.014369 -0.031269
							CHANNELS 3 Zrotation Yrotation Xrotation
							JOINT rwrist
							{
								OFFSET -0.269108 0.006794 -0.006027
								CHANNELS 3 Zrotation Yrotation Xrotation
								End Site
								{
									OFFSET 0.000000 0.000000 0.000000
								}
							}
						}
					}
				}
			}
		}
	}
}
MOTION
Frames: 10
Frame Time: 0.033333
-2.060186 0.831475 0.982683 172.007909 -3.166354 85.165803 2.743346 -3.848973 -16.896029 -0.999031 -1.680606 6.849230 1.807458 8.279300 -0.983916 0.000000 -0.000000 0.000000 -0.555561 -5.538486 17.083881 -1.517578 5.984156 16.448623 -0.134229 -9.065428 -9.499900 0.000000 -0.000000 0.000000 -1.078089 7.958604 7.618737 0.499506 -1.762401 -2.314118 -0.505182 2.305959 2.221311 5.753692 -11.593916 -3.732262 4.772830 -17.420681 5.403556 -24.258994 5.586970 -0.108681 -48.090591 -2.773644 3.448353 9.025926 -16.678439 0.672300 -3.306953 0.125204 -6.078603 23.758433 5.693043 0.713251 51.422644 6.487639 15.077764 -10.821579 30.306385 3.075164 2.516974 2.321891 -0.693999 
-2.066414 0.868623 0.985056 170.940347 -3.483715 85.413335 1.742269 -3.611581 -14.997888 -1.412199 -2.480836 7.605306 2.607823 8.986862 2.015546 0.000000 -0.000000 0.000000 -1.993029 -4.844318 15.433234 -0.824494 5.590499 23.047703 2.269660 -8.175242 -3.561023 0.000000 -0.000000 0.000000 -1.901976 7.126156 6.198887 0.876840 -1.527206 -2.085519 -0.678813 2.256834 2.012073 5.591524 -12.637212 -2.393448 5.049806 -16.779130 5.549332 -24.204635 5.864457 0.183854 -47.161503 -3.365119 3.120369 9.346988 -16.433216 -0.844567 -3.702772 0.189665 -5.859295 24.070987 4.455576 0.829960 51.605219 5.059896 15.405345 -11.466983 30.151517 2.004249 3.528193 2.163020 -0.415257 
-2.072176 0.905473 0.989644 170.184244 -3.766473 84.810554 0.605047 -3.191924 -11.683584 -1.852722 -3.053030 7.980100 4.246589 9.970529 0.950339 0.000000 -0.000000 0.000000 -3.287934 -4.001544 12.436368 -0.507353 5.117618 32.101892 4.760310 -7.527776 5.024241 0.000000 -0.000000 0.000000 -2.415018 6.297798 5.870037 1.181302 -1.249807 -1.887050 -0.765502 1.967060 1.910273 5.638994 -14.016510 -1.503396 5.115277 -16.260997 5.631238 -24.180385 5.486326 0.632989 -46.537982 -4.293779 2.743681 9.414369 -16.215579 -2.038784 -3.824380 0.291363 -5.627565 23.807458 3.223898 0.801669 52.104564 3.523351 15.453398 -12.071382 29.781796 1.042698 4.098934 1.996191 -0.102018 
-2.076911 0.938566 0.993141 169.934640 -4.450914 84.373986 -0.733769 -3.100684 -8.342809 -2.718700 -3.598645 7.378002 5.726021 11.455515 -0.305650 0.000000 -0.000000 0.000000 -4.290436 -2.531904 6.850788 -0.047938 4.241328 44.201083 4.035725 -8.237289 11.320883 0.000000 -0.000000 0.000000 -3.221878 4.394095 5.877334 1.332590 -1.138380 -1.432349 -1.216648 1.916416 1.973846 5.417105 -14.583836 -0.966269 5.700843 -15.830946 4.908718 -23.652386 4.808730 1.135577 -46.436453 -5.571766 2.271672 10.033732 -16.855523 -2.860876 -4.751167 0.626511 -6.220691 23.384266 2.990084 0.904879 53.116028 2.572256 15.574936 -12.718671 29.119729 0.476853 5.262939 1.246459 -0.250231 
-2.079650 0.968916 0.996477 170.118309 -4.621456 83.388712 -2.023083 -2.439619 -4.442313 -2.640793 -5.395198 6.477096 6.923264 12.427136 -1.230640 0.000000 -0.000000 0.000000 -4.703763 -1.439341 1.264318 0.239566 2.490352 54.518507 3.330173 -9.132453 15.419962 0.000000 -0.000000 0.000000 -3.580048 2.239927 6.963998 1.430626 -0.957342 -0.707684 -1.425746 1.454332 1.915587 5.546275 -15.071245 -1.355565 5.695314 -15.446682 4.141987 -23.607986 3.494418 1.561929 -45.810147 -6.907306 2.123749 10.339778 -17.791454 -3.997624 -5.068053 0.650512 -6.568546 23.299659 3.207135 1.140519 53.303250 1.808043 15.617089 -13.202454 28.748194 -0.831085 5.972649 1.447960 -0.939629 
-2.080368 0.997886 0.999090 170.284291 -4.114842 82.183535 -2.553290 -1.624091 -0.249136 -1.925732 -7.186482 5.138417 7.299649 13.616381 -2.214869 0.000000 -0.000000 0.000000 -3.859942 -0.276786 -3.824918 -0.052835 -0.235204 60.964173 1.972529 -10.985647 10.839720 0.000000 -0.000000 0.000000 -3.580949 -0.092691 8.356194 1.739975 -0.793666 0.000841 -1.375596 1.166360 1.955092 5.438866 -14.626708 -1.299076 5.628882 -15.639036 3.399807 -23.578986 1.586041 1.633493 -45.175064 -8.197551 2.072701 10.444114 -18.426465 -5.019988 -5.028185 0.644467 -6.267147 22.990219 3.890358 1.279770 53.134141 0.465257 15.441434 -12.450877 29.659055 -0.712952 7.491630 0.731078 -1.388287 
-2.080319 1.026403 1.002249 171.043594 -3.334805 81.143968 -2.485573 -0.230662 3.818194 -1.209535 -9.461561 3.604155 6.953499 14.174311 -3.350500 0.000000 -0.000000 0.000000 -2.844641 0.164770 -8.235988 -0.586380 -3.137734 62.802467 0.915183 -11.375606 5.008830 0.000000 -0.000000 0.000000 -3.174470 -1.877025 9.720917 1.840922 -0.886553 0.182527 -1.261518 0.526652 1.817786 5.160664 -14.273771 -0.659651 5.659376 -16.346354 2.970976 -23.161014 -0.382465 1.573590 -45.284543 -9.734747 2.287609 10.756857 -18.667173 -4.818370 -4.724655 0.903413 -5.047966 22.685642 4.365982 1.484511 53.458194 -0.849794 14.700585 -12.152950 29.196793 -0.186577 7.939083 0.925943 -1.505989 
-2.078505 1.053721 1.004153 171.838854 -2.409765 80.638212 -1.713141 1.473908 6.984457 -0.715437 -11.090774 2.363253 6.591662 14.105686 -4.559212 0.000000 -0.000000 0.000000 -2.184356 -0.421309 -12.395166 -0.893027 -6.627469 60.480253 1.601521 -11.063309 -0.117510 0.000000 -0.000000 0.000000 -2.853974 -3.304851 10.593219 2.029935 -1.245190 0.007928 -0.876469 -0.161972 1.937120 5.162238 -13.764720 -0.092944 5.928102 -16.972122 2.668033 -22.853647 -1.876174 1.115577 -45.618657 -11.548194 2.458074 10.833647 -19.225032 -4.590082 -3.819247 1.196143 -3.329230 22.448620 4.307413 1.713470 53.760804 -1.871194 13.968211 -12.157044 28.997155 0.354898 7.540162 1.013817 -0.789522 
-2.075057 1.079574 1.004272 172.687354 -1.884377 80.410812 -0.869976 2.629332 9.361556 -0.642293 -12.608854 2.028794 6.208287 13.599277 -5.833929 0.000000 -0.000000 0.000000 -1.370496 -0.759158 -15.880850 -1.376431 -9.475423 54.409929 1.156156 -12.083278 -3.699483 0.000000 -0.000000 0.000000 -2.999060 -4.476982 11.602384 2.128557 -1.552556 -0.747766 -0.441631 -0.984620 2.345748 5.176050 -13.622560 -0.064470 6.094835 -17.535394 2.907632 -22.346758 -2.639240 0.368074 -46.256771 -13.756457 2.703043 10.373204 -20.385694 -3.843910 -3.242080 0.862788 -2.556220 21.602933 3.467630 1.112180 54.552644 -2.450738 13.544237 -11.358935 28.337452 1.501335 7.325043 0.975570 -0.279700 
-2.070939 1.105095 1.003037 172.891534 -1.695757 80.327886 -0.365149 3.361835 11.337201 -0.723248 -12.918011 2.265417 5.912060 13.102540 -7.237577 0.000000 -0.000000 0.000000 -0.643655 -1.388457 -18.198888 -2.413915 -12.705259 45.055578 0.730496 -14.864140 -5.422614 0.000000 -0.000000 0.000000 -3.132632 -5.219616 12.266280 1.984326 -1.801761 -1.094481 -0.109867 -1.482934 2.477281 4.845759 -14.245491 0.069200 6.814243 -18.021849 2.600544 -21.869853 -3.578011 0.412467 -46.781105 -15.995495 2.918922 10.033526 -22.127180 -3.737220 -2.520577 0.241401 -3.426308 20.886495 3.563122 1.181160 55.643918 -3.628795 13.437329 -11.694460 28.148059 1.483976 6.725859 0.530362 -1.451790 
